<?xml version="1.0" encoding="UTF-8"?><svg id="a" xmlns="http://www.w3.org/2000/svg" viewBox="0 0 439.18 141.74"><defs><style>.b{fill:#00e8c3;}.c{fill:#7b4dda;}</style></defs><path class="b" d="M85.5,81.49h20.64V21.18h-20.64v24.23L56,15.17c-8.13-8.33-21.33-8.34-29.46-.02l44.32,45.23h-8.95v-.08h-20.64v60.31h20.64v-24.23l29.5,30.24c8.13,8.33,21.33,8.34,29.46,.02l-44.25-45.16h8.88Z"/><path class="b" d="M106.14,0V21.11c11.4,0,20.64,9.45,20.64,21.11V120.63l20.64-21.11V42.22C147.42,18.9,128.94,0,106.15,0h0Z"/><path class="b" d="M20.64,99.51V21.11L0,42.22v57.3c0,23.32,18.48,42.22,41.27,42.22v-21.11c-11.4,0-20.64-9.45-20.64-21.11h0Z"/><path class="c" d="M204.84,42.2c-7.28,0-14.16,3.18-18.53,8.74-3.71,4.5-5.29,9.4-5.29,16.54v32.03h12.97v-28.32c0-6.35,.53-9,2.12-11.65,1.72-2.78,5.29-4.63,8.87-4.63s7.01,1.99,8.6,4.76c1.59,2.78,2.12,5.96,2.12,12.44v27.4h12.97v-31.1c0-8.6-1.32-12.97-5.29-17.74-4.5-5.43-11.25-8.47-18.53-8.47h0Z"/><path class="c" d="M272.83,71.32c0,6.35-.53,9-2.12,11.65-1.72,2.78-5.29,4.63-8.87,4.63s-7.02-1.99-8.6-4.76-2.12-5.96-2.12-12.44v-27.4h-12.97v31.1c0,8.6,1.32,12.97,5.29,17.74,4.5,5.43,11.25,8.47,18.53,8.47,3.83,0,7.55-.89,10.85-2.53v.22c0,8.74-2.65,11.65-10.99,11.78h-.93v12.57c9.4,0,14.03-1.46,18.66-5.82,4.5-4.1,6.22-9.53,6.22-18.79V43.01h-12.97v28.32h.02Z"/><path class="c" d="M319.11,42.2c-7.28,0-14.16,3.18-18.53,8.74-3.71,4.5-5.29,9.4-5.29,16.54v32.03h12.97v-28.32c0-6.35,.53-9,2.12-11.65,1.72-2.78,5.29-4.63,8.87-4.63s7.02,1.99,8.6,4.76c1.59,2.78,2.12,5.96,2.12,12.44v27.4h12.97v-31.1c0-8.6-1.32-12.97-5.29-17.74-4.5-5.43-11.25-8.47-18.53-8.47h0Z"/><path class="c" d="M404.2,74.49c2.38-1.85,3.71-4.63,3.71-7.94,0-4.77-2.78-10.85-7.01-15.35-5.56-5.82-12.84-9-21.05-9-15.88,0-28.85,12.97-28.85,28.99s13.24,29.12,28.99,29.12c12.18,0,22.9-7.54,27-19.06h-13.77c-3.44,4.24-7.68,6.35-12.97,6.35-7.15,0-13.1-4.24-15.49-10.85h28.85c6.35,0,8.07-.4,10.59-2.25h0Zm-23.96-19.6c6.88,0,12.84,4.1,14.96,10.32h-30.18c2.65-6.49,8.34-10.32,15.22-10.32Z"/><path class="c" d="M439.18,56.35v-12.2h-11.68v-12.82h-12.72v44.09c0,9.08,1.69,14.41,6.1,18.43,4.54,4.28,9.08,5.71,18.3,5.71v-12.33h-.91c-8.18-.13-10.77-2.98-10.77-11.55v-19.34h11.68Z"/></svg>